HIERARCHY
ROOT Hips
{
	OFFSET 0.000000 0.000000 0.000000 
	CHANNELS 6 Xposition Yposition Zposition Yrotation Zrotation Xrotation 
	JOINT Lumbar
	{
		OFFSET 0.000000 0.000000 0.000000 
		CHANNELS 3 Zrotation Xrotation Yrotation
		JOINT Neck
		{
			OFFSET 0.000000 0.445665 0.000000 
			CHANNELS 3 Zrotation Xrotation Yrotation
			End Site
			{
				OFFSET 0.000000 0.227535 0.000000 
			}
		}
		JOINT RightShoulder
		{
			OFFSET 0.019635 0.377685 0.194865 
			CHANNELS 3 Zrotation Xrotation Yrotation
			JOINT RightElbow
			{
				OFFSET 0.000000 -0.243375 0.000000 
				CHANNELS 2 Zrotation Yrotation
				JOINT RightWrist
				{
					OFFSET 0.000000 -0.264825 0.000000 
					CHANNELS 2 Zrotation Xrotation
					End Site
					{
						OFFSET 0.006600 -0.176220 0.000990 
					}
				}
			}
		}
		JOINT LeftShoulder
		{
			OFFSET 0.019635 0.377685 -0.194865 
			CHANNELS 3 Zrotation Xrotation Yrotation
			JOINT LeftElbow
			{
				OFFSET 0.000000 -0.243375 0.000000 
				CHANNELS 2 Zrotation Yrotation
				JOINT LeftWrist
				{
					OFFSET 0.000000 -0.264825 0.000000 
					CHANNELS 2 Zrotation Xrotation
					End Site
					{
						OFFSET 0.006600 -0.176220 -0.000990 
					}
				}
			}
		}
	}
	JOINT RightHip
	{
		OFFSET 0.052140 -0.069960 0.075570 
		CHANNELS 3 Zrotation Xrotation Yrotation
		JOINT RightKnee
		{
			OFFSET 0.000000 -0.402270 0.000000 
			CHANNELS 1 Zrotation
			JOINT RightAnkle
			{
				OFFSET 0.000000 -0.404085 0.000000 
				CHANNELS 3 Zrotation Xrotation Yrotation
				End Site
				{
					OFFSET 0.204105 -0.089430 0.008415 
				}
			}
		}
	}
	JOINT LeftHip
	{
		OFFSET 0.052140 -0.069960 -0.075570 
		CHANNELS 3 Zrotation Xrotation Yrotation
		JOINT LeftKnee
		{
			OFFSET 0.000000 -0.402270 0.000000 
			CHANNELS 1 Zrotation
			JOINT LeftAnkle
			{
				OFFSET 0.000000 -0.404085 0.000000 
				CHANNELS 3 Zrotation Xrotation Yrotation
				End Site
				{
					OFFSET 0.204105 -0.089430 -0.008415 
				}
			}
		}
	}
}
MOTION
Frames: 19
Frame Time: 0.02
1.41831 0.26902 -0.19547 -0.8286 -21.84633 -2.06691 37.2361 2.77651 -12.00017 -22.93245 6.59362 -2.11943 -2.80425 -19.06584 6.38523 101.9619 80.25475 10.56766 -3.32783 -12.9242 21.31964 -16.27236 50.78332 -89.66146 8.43443 -0.02822 29.62471 -9.2654 -2.29201 -10.59724 -7.97261 -1.84654 -3.20633 11.57335 5.24439 -0.20668 0.53623 -13.71848 35.7024 19.52277
1.41884 0.26861 -0.19308 -0.95241 -22.14748 -1.92325 37.32557 2.77663 -11.59333 -22.93363 7.21913 -2.11943 -2.3956 -19.01828 6.77724 100.66248 79.58007 11.14937 -3.50777 -13.53192 21.57451 -15.97895 50.94927 -90.10213 8.56725 -0.10694 30.91175 -9.19492 -2.31128 -12.41229 -8.12945 -1.93266 -3.25427 11.83842 5.21822 -0.10281 0.53746 -13.66913 35.6866 19.51975
1.41948 0.26808 -0.19019 -1.11328 -22.52136 -1.75062 37.43204 2.76015 -11.08832 -22.90127 8.03177 -2.11943 -1.7173 -18.9591 7.26735 98.88584 78.56849 11.94609 -3.68024 -14.26095 21.91803 -15.72479 51.19438 -90.71812 8.75197 -0.20676 32.49797 -9.10795 -2.44103 -14.63856 -7.8767 -2.002 -3.2726 12.16882 5.18221 0.05421 0.53863 -13.60248 35.66978 19.51652
1.42011 0.26762 -0.18749 -1.25317 -22.8532 -1.59435 37.52102 2.75128 -10.63153 -22.88081 8.78714 -2.11944 -1.10336 -18.91738 7.77776 97.19731 77.86282 12.59522 -3.81906 -14.9482 22.21454 -15.43432 51.39812 -91.24816 8.89664 -0.30167 33.9183 -9.01097 -2.51569 -16.64276 -7.83088 -2.0853 -3.30865 12.45746 5.15679 0.1854 0.53979 -13.55495 35.65351 19.51341
1.42054 0.26709 -0.18497 -1.41275 -23.22225 -1.42333 37.64938 2.7402 -10.1577 -22.87247 9.42903 -2.11944 -0.71875 -18.82229 8.02454 96.03311 76.52561 13.44853 -4.11605 -15.58441 22.54067 -15.21892 51.62346 -91.80243 9.10861 -0.37756 35.47236 -8.98585 -2.60511 -18.80895 -7.72627 -2.1441 -3.32925 12.79566 5.10412 0.32564 0.54112 -13.45831 35.63672 19.51018
1.42142 0.26669 -0.18195 -1.53675 -23.53212 -1.27757 37.70088 2.73242 -9.69717 -22.83247 10.34983 -2.11944 0.18539 -18.83809 8.83011 93.68367 76.41031 13.93414 -4.0835 -16.35291 22.8257 -14.85927 51.8239 -92.35073 9.19667 -0.49728 36.81068 -8.80914 -2.69437 -20.72059 -7.63508 -2.24922 -3.37405 13.04805 5.10791 0.45656 0.54207 -13.46249 35.62094 19.50715
1.42347 0.2666 -0.17767 -1.58412 -23.65039 -1.1967 37.53021 2.71406 -9.29352 -22.70485 11.99901 -2.11944 2.65162 -19.14101 11.27396 88.0228 79.84851 13.30147 -3.11503 -17.46823 22.97544 -14.07127 51.92706 -92.81229 8.89039 -0.73905 37.54559 -8.20234 -2.72726 -21.9464 -7.68774 -2.49314 -3.49671 13.02989 5.25119 0.57804 0.54217 -13.72417 35.60585 19.5043
1.42597 0.26665 -0.1729 -1.58856 -23.70796 -1.14419 37.28243 2.70384 -8.90843 -22.54925 13.91998 -2.11945 5.59319 -19.55962 14.25419 81.21782 84.50504 12.30111 -1.82093 -18.71064 23.08068 -13.14088 52.0049 -93.26503 8.46397 -1.0228 38.03988 -7.44638 -2.75999 -22.87878 -7.76209 -2.78844 -3.64652 12.92597 5.45481 0.68332 0.54183 -14.09245 35.59151 19.50143
1.42829 0.26666 -0.16835 -1.59295 -23.80076 -1.08694 37.07451 2.70557 -8.51646 -22.41081 15.71496 -2.11945 8.19352 -19.94012 16.91133 75.03586 88.54507 11.50212 -0.69194 -19.8858 23.20613 -12.28901 52.09945 -93.74206 8.11932 -1.28358 38.60217 -6.76918 -2.81484 -23.86896 -7.81905 -3.04807 -3.77749 12.87331 5.64349 0.77638 0.54161 -14.42832 35.57928 19.49926
1.43054 0.26657 -0.1638 -1.68214 -23.86601 -0.99554 36.84867 2.6412 -8.11091 -22.24825 17.53196 -2.11945 11.34151 -20.26072 19.90865 68.39139 92.85632 10.56531 0.51451 -21.10184 23.33449 -11.3795 52.17182 -94.14716 7.6652 -1.56254 39.35269 -6.04574 -2.78886 -25.19565 -7.89687 -3.33537 -3.92333 12.77268 5.78039 0.95234 0.54185 -14.69602 35.55967 19.49547
1.43302 0.26673 -0.15915 -1.58283 -23.97054 -0.98081 36.63928 2.71595 -7.74378 -22.13494 19.35892 -2.11945 13.4461 -20.73171 22.32123 62.45812 96.87418 9.82618 1.63059 -22.2657 23.44537 -10.5566 52.2871 -94.68822 7.40562 -1.81206 39.64609 -5.38257 -2.91919 -25.74246 -7.93806 -3.60731 -4.05958 12.74872 6.03802 0.95312 0.54087 -15.1311 35.55189 19.49342
1.43606 0.26758 -0.15435 -0.98479 -24.22137 -1.18398 36.5143 3.1787 -7.44057 -22.11989 21.19766 -2.11944 12.65366 -21.60563 23.00604 58.66025 99.97423 9.71702 2.47127 -23.21513 23.515 -10.00034 52.49228 -95.68748 7.74943 -1.98051 38.77082 -4.93049 -3.57398 -24.24223 -7.90511 -3.55809 -4.03302 12.97438 6.62718 0.47104 0.53785 -15.99916 35.59438 19.50318
1.43931 0.26869 -0.14949 -0.19716 -24.50916 -1.46066 36.40479 3.7799 -7.18266 -22.16376 23.02514 -2.11943 10.77419 -22.62293 23.07957 55.64198 102.70246 9.82032 3.1996 -24.11369 23.56827 -9.53758 52.746 -96.80816 8.28637 -2.11573 37.43744 -4.54349 -4.36989 -21.96176 -7.83126 -3.534 -4.01675 13.27652 7.33285 -0.1764 0.53323 -17.02936 35.63561 19.50858
1.44243 0.26969 -0.14466 0.51247 -24.76462 -1.69567 36.27478 4.31428 -6.92953 -22.2102 24.82542 -2.11943 9.3257 -23.56556 23.42115 52.33813 105.47853 9.82809 3.94422 -25.06149 23.6319 -9.03634 53.00196 -97.81919 8.71003 -2.25929 36.28743 -4.12051 -5.03769 -20.00983 -7.75591 -3.68243 -4.08539 13.5324 7.97749 -0.7591 0.52874 -17.99169 35.67826 19.51749
1.44573 0.27067 -0.13976 1.19299 -25.08368 -1.96801 36.19855 4.86642 -6.57094 -22.13222 26.77782 -2.11941 8.16189 -24.55678 23.82443 48.69694 108.81093 9.81554 4.84744 -25.90626 23.68414 -8.51223 53.16115 -99.05901 9.23579 -2.43324 35.2273 -3.71638 -5.96884 -18.14541 -7.76263 -3.0865 -3.79108 13.83452 8.66063 -1.33966 0.52743 -18.94678 35.75771 19.53967
1.4487 0.27175 -0.13502 1.97376 -25.27972 -2.17785 36.01551 5.41305 -6.44123 -22.32718 28.39953 -2.11941 6.13848 -25.4738 23.94481 45.96728 110.87718 9.90469 5.38881 -26.94846 23.75373 -8.06104 53.52543 -99.85247 9.59815 -2.53501 33.88269 -3.2941 -6.39354 -15.93286 -7.59254 -4.00812 -4.23688 14.05883 9.2876 -1.91199 0.51829 -19.93698 35.70958 19.50842
1.45072 0.27303 -0.13068 3.02506 -25.12893 -2.21267 35.52992 5.92172 -6.94385 -23.2658 29.17182 -2.11943 2.02502 -26.19729 23.44982 45.49715 109.56109 10.18693 4.96227 -28.57575 23.90055 -7.77849 54.51414 -99.37261 9.44652 -2.44924 31.79382 -2.7752 -5.30864 -12.81528 -6.91026 -9.44518 -6.87955 14.0577 9.75472 -2.89048 0.49381 -21.13389 35.76624 19.5541
1.45241 0.2744 -0.12652 4.16211 -24.85367 -2.17896 34.93783 6.41789 -7.67305 -24.47579 29.59756 -2.11945 -2.92015 -26.83173 22.68573 45.93631 106.97464 10.57148 4.17362 -30.39694 24.06031 -7.56867 55.69375 -98.44164 9.1272 -2.29114 29.44952 -2.24241 -3.72169 -9.4003 -6.05818 -16.34891 -10.23842 13.97555 10.15631 -3.78584 0.45949 -22.3345 35.6258 19.51257
1.45426 0.27572 -0.12232 5.23456 -24.6336 -2.16639 34.39682 6.91251 -8.29095 -25.5596 30.1423 -2.11947 -7.50055 -27.47615 22.03117 46.00814 104.94678 10.93605 3.54593 -32.11166 24.19848 -7.33262 56.74125 -97.72426 8.89556 -2.16346 27.269 -1.7366 -2.41713 -6.21196 -5.30544 -22.36076 -13.166 13.9243 10.57229 -4.38777 0.42703 -23.43187 35.255 19.35419
